<svg version="1.1" id="Layer_1" xmlns="http://www.w3.org/2000/svg" xmlns:xlink="http://www.w3.org/1999/xlink" x="0px" y="0px"
	 width="100%" viewBox="0 0 2000 1247" enable-background="new 0 0 2000 1247" xml:space="preserve">

<path fill="#dedede" opacity="1.000000" stroke="none" 
	d="
M1245.531372,1.000004 
	C1246.836548,1.332227 1247.650146,1.870304 1248.512939,1.966101 
	C1263.822632,3.665860 1279.241455,4.672620 1294.427734,7.124231 
	C1315.464355,10.520301 1336.518799,14.199702 1357.217896,19.198105 
	C1386.112549,26.175560 1414.379517,35.446369 1441.674561,47.345524 
	C1458.387085,54.631241 1475.210571,61.803631 1491.337280,70.260674 
	C1521.230957,85.937386 1550.165649,103.330399 1576.704956,124.320763 
	C1592.781738,137.036072 1608.640747,150.074631 1623.956055,163.689682 
	C1636.856934,175.158539 1649.448730,187.107986 1661.054688,199.865906 
	C1674.502075,214.647766 1686.906250,230.398026 1699.433716,245.992676 
	C1719.190430,270.586548 1735.760254,297.289001 1751.012085,324.862457 
	C1771.730957,362.319061 1788.159912,401.610413 1800.586060,442.494537 
	C1806.623169,462.357269 1811.363159,482.656952 1815.761230,502.960083 
	C1818.692871,516.493652 1820.306763,530.344727 1821.922485,544.122681 
	C1823.643311,558.797424 1825.274658,573.529480 1825.860718,588.279602 
	C1826.737671,610.352417 1827.386597,632.483154 1826.764404,654.550659 
	C1826.293823,671.237183 1823.695190,687.864380 1822.024902,704.516113 
	C1819.465210,730.032959 1814.274292,755.072998 1807.958008,779.877136 
	C1801.139404,806.653564 1792.947388,833.039551 1782.044800,858.441528 
	C1773.503906,878.341248 1764.677246,898.183655 1754.691040,917.382385 
	C1739.865723,945.884888 1722.897095,973.184265 1702.936401,998.435242 
	C1690.122437,1014.645142 1676.936646,1030.596802 1663.226440,1046.051025 
	C1652.102539,1058.589844 1640.459351,1070.768555 1628.141602,1082.125610 
	C1605.738892,1102.780640 1582.456177,1122.495117 1556.721802,1138.959351 
	C1536.981323,1151.588745 1517.049561,1163.976074 1496.681519,1175.554077 
	C1468.042969,1191.833374 1437.597290,1204.185913 1406.516479,1215.057251 
	C1377.316650,1225.270752 1347.410645,1232.768311 1317.138794,1238.805786 
	C1304.979492,1241.230957 1292.573730,1242.495850 1280.240479,1243.952393 
	C1268.988403,1245.281250 1257.682617,1246.155640 1246.200195,1247.615234 
	C1217.312378,1248.000000 1188.624878,1248.000000 1159.269531,1247.615967 
	C1151.415405,1246.782959 1144.228760,1246.334106 1137.042236,1245.885376 
	C1130.645996,1244.926025 1124.234619,1244.058105 1117.856689,1242.989258 
	C1102.265259,1240.376587 1086.478394,1238.536621 1071.155396,1234.804321 
	C1046.882935,1228.892090 1022.643677,1222.545532 998.922058,1214.762207 
	C979.674255,1208.446655 961.043640,1200.126831 942.430481,1192.026733 
	C908.848206,1177.412231 877.275330,1159.097290 847.392578,1137.976929 
	C832.334045,1127.333984 817.898010,1115.810059 803.185547,1104.677979 
	C802.132629,1103.881226 801.121704,1103.028809 799.398865,1101.647095 
	C801.029663,1101.267700 801.588806,1101.024658 802.148193,1101.023926 
	C819.647095,1101.001465 837.151672,1100.775513 854.639832,1101.208008 
	C857.823853,1101.286865 861.103394,1103.808960 864.062439,1105.647949 
	C881.892151,1116.728638 899.309570,1128.519287 917.518188,1138.929810 
	C933.215027,1147.904053 949.549744,1155.866821 966.019775,1163.359497 
	C989.840088,1174.195923 1014.342041,1183.407471 1039.720703,1189.974365 
	C1058.587036,1194.855957 1077.526367,1199.502075 1096.562866,1203.659546 
	C1106.273926,1205.780518 1116.243530,1206.833252 1126.143555,1207.947876 
	C1142.610229,1209.801758 1159.114868,1211.319824 1175.604980,1212.964600 
	C1176.430664,1213.047119 1177.270386,1213.009399 1178.103271,1212.997070 
	C1200.367920,1212.666870 1222.694824,1213.244751 1244.878784,1211.729736 
	C1265.068359,1210.350952 1285.151123,1207.018311 1305.193726,1203.973022 
	C1335.806641,1199.321411 1365.550171,1191.110596 1394.827637,1181.094116 
	C1424.793579,1170.842407 1453.588501,1157.945312 1481.518188,1143.090454 
	C1507.158813,1129.453247 1531.507202,1113.698486 1554.821045,1096.444214 
	C1567.065674,1087.382202 1578.753296,1077.480713 1590.056763,1067.255493 
	C1604.933350,1053.797974 1620.075439,1040.452515 1633.476318,1025.591553 
	C1649.907227,1007.370239 1664.960815,987.869629 1680.053345,968.488586 
	C1697.427002,946.178467 1711.542725,921.768738 1724.728760,896.783264 
	C1737.969604,871.693848 1749.036621,845.713379 1758.550659,819.007874 
	C1767.397217,794.175781 1774.336792,768.803772 1779.761475,743.068420 
	C1783.055908,727.439270 1785.178833,711.509094 1786.880615,695.612793 
	C1788.807007,677.618835 1789.679932,659.511780 1790.995605,641.452881 
	C1791.358521,636.471375 1792.069702,631.474182 1791.926270,626.504333 
	C1791.453979,610.134338 1791.549927,593.676941 1789.780151,577.432617 
	C1787.323853,554.886353 1783.498779,532.483582 1780.031006,510.054718 
	C1776.494263,487.179871 1770.049805,465.013428 1762.931030,443.045319 
	C1755.208130,419.213013 1745.887329,396.041260 1735.237427,373.326141 
	C1721.709961,344.473083 1705.958130,316.933929 1687.797974,290.850708 
	C1676.693237,274.901062 1664.731445,259.434113 1651.973633,244.778534 
	C1636.433105,226.926376 1620.295532,209.484818 1603.241089,193.087967 
	C1582.920654,173.551041 1560.650146,156.193680 1537.446411,140.106079 
	C1510.049072,121.110947 1481.191772,104.614136 1450.985840,90.591698 
	C1420.148315,76.275970 1388.501221,63.929501 1355.339111,56.057346 
	C1333.830566,50.951546 1312.180664,46.389935 1290.481567,42.161530 
	C1281.182495,40.349430 1271.619263,39.652817 1262.137939,39.064812 
	C1242.191162,37.827778 1222.228882,36.660656 1202.255005,36.089417 
	C1179.779907,35.446648 1157.338989,36.649727 1135.088501,40.036957 
	C1114.617676,43.153275 1093.983887,45.685658 1073.830566,50.271362 
	C1052.018555,55.234505 1030.530762,61.809002 1009.190369,68.589333 
	C996.575684,72.597313 984.429565,78.153702 972.230042,83.380905 
	C934.883911,99.382736 899.288208,118.658394 866.156921,142.194046 
	C859.724548,146.763397 853.552185,148.256485 846.076294,148.096481 
	C830.964966,147.772980 815.841797,148.000000 800.018555,146.945282 
	C802.658875,144.482056 805.071655,141.703613 807.976196,139.606339 
	C828.202759,125.001495 847.945435,109.612198 868.994080,96.293060 
	C889.469666,83.336563 910.914429,71.727196 932.682007,61.052334 
	C951.903015,51.626369 971.839417,43.405697 992.038452,36.296486 
	C1013.748596,28.655424 1035.966431,22.277464 1058.277832,16.583288 
	C1074.810791,12.363900 1091.826416,9.996272 1108.669434,7.046236 
	C1117.485474,5.502106 1126.393066,4.480362 1136.085205,3.098399 
	C1144.274170,2.316063 1151.637085,1.658033 1159.000000,1.000001 
	C1187.687622,1.000000 1216.375122,1.000000 1245.531372,1.000004 
z"/>

<path  fill="#dedede" opacity="1.000000" stroke="none" 
	d="
M610.655212,243.689621 
	C627.555054,241.976746 644.071838,240.436371 660.599792,239.026749 
	C666.517700,238.522034 672.495483,237.764374 678.388794,238.106552 
	C696.131958,239.136841 713.863159,240.467804 731.568726,242.025925 
	C751.444092,243.774979 770.782227,248.159576 789.585144,254.871094 
	C808.954590,261.784821 826.704956,271.359619 842.479309,284.811432 
	C864.178467,303.315674 882.143799,324.780518 895.863037,349.707458 
	C902.766663,362.250793 908.860535,375.239777 915.810730,388.997437 
	C904.836914,393.340240 894.586426,397.396729 883.560486,401.760162 
	C881.592102,397.631561 879.377014,393.339172 877.465820,388.915497 
	C869.424194,370.302032 859.192261,353.034363 846.159363,337.467072 
	C841.157349,331.492310 836.605225,325.037384 830.998230,319.692902 
	C816.891663,306.246887 800.574280,296.187836 782.407776,288.880310 
	C766.082581,282.313446 749.215515,278.036591 731.968445,275.159210 
	C724.372314,273.891876 716.607849,273.553589 708.903748,273.031525 
	C697.555664,272.262512 686.181091,271.031860 674.839783,271.233337 
	C661.207764,271.475464 647.588135,272.886353 633.982422,274.022339 
	C616.190735,275.507874 598.866333,279.323975 582.296814,285.982605 
	C564.077515,293.304169 547.331970,303.069458 532.327148,315.979614 
	C518.715088,327.691467 507.140533,340.936798 498.139618,356.406952 
	C489.097839,371.947388 481.946259,388.377075 477.100098,405.680634 
	C473.467194,418.652100 470.316956,431.786102 467.625427,444.985077 
	C465.540192,455.210754 464.352570,465.630463 463.029114,475.997528 
	C461.535126,487.700714 459.957336,499.414368 459.115295,511.173584 
	C458.287292,522.737244 458.137878,534.361816 458.034760,545.962769 
	C457.617676,592.892700 457.127411,639.823792 457.108734,686.754578 
	C457.101959,703.785706 457.826935,720.857239 459.150116,737.837769 
	C460.511017,755.302002 462.433960,772.767334 465.130615,790.073303 
	C470.566772,824.960144 479.296722,858.952209 496.645782,890.094971 
	C505.830078,906.581482 517.882385,920.747925 532.338867,933.027039 
	C544.134644,943.046143 556.723694,951.660950 570.686340,958.242554 
	C586.378113,965.639282 602.964111,970.068115 620.021423,973.070129 
	C636.473999,975.965698 652.990845,977.441406 669.686096,977.004944 
	C683.299683,976.649048 696.991394,977.131714 710.512207,975.828552 
	C738.487366,973.132080 765.768066,967.230225 791.699890,955.803467 
	C809.796204,947.829407 826.049744,937.096558 841.018433,924.365356 
	C847.798584,918.598633 855.026794,912.909546 860.239563,905.847656 
	C869.484802,893.322815 878.207397,880.115234 880.891479,864.281921 
	C882.450684,855.084473 883.817322,845.719666 883.864868,836.422974 
	C884.141113,782.426758 884.000000,728.428467 884.000000,674.430847 
	C884.000000,672.467346 884.000000,670.503906 884.000000,668.051025 
	C839.532166,668.051025 795.457825,668.051025 751.509766,668.051025 
	C751.509766,656.874634 751.509766,646.192932 751.509766,635.255493 
	C808.330200,635.255493 865.259521,635.255493 923.000000,635.255493 
	C923.000000,636.703796 923.000000,638.276672 923.000000,639.849487 
	C923.000000,709.346375 923.201355,778.844360 922.842285,848.339417 
	C922.763672,863.561279 918.635986,878.340576 912.797363,892.429688 
	C905.848450,909.198303 895.772522,923.880371 883.415283,937.287598 
	C862.392395,960.096924 837.361023,976.487366 808.767273,988.227783 
	C787.666504,996.891602 765.720276,1001.918518 743.467163,1005.820496 
	C732.665466,1007.714478 721.595398,1008.219727 710.619934,1008.945557 
	C696.937805,1009.850403 683.205750,1011.178589 669.534485,1010.821411 
	C642.492554,1010.115051 615.676697,1007.385864 589.235596,1000.825073 
	C562.354126,994.154968 538.253967,982.213928 516.406372,965.585144 
	C510.287903,960.928284 505.401031,954.677734 499.790436,949.324707 
	C479.757202,930.211121 465.583893,907.217407 455.965118,881.502258 
	C449.548615,864.348145 444.215302,846.776917 438.788849,829.270996 
	C436.986969,823.457886 436.288696,817.285828 435.296692,811.243286 
	C434.342346,805.429871 434.337036,799.366211 432.644867,793.798401 
	C431.295532,789.358887 430.793701,785.176025 430.784271,780.612610 
	C430.777771,777.482544 428.961792,774.382568 428.186035,771.212524 
	C427.937469,770.196838 428.641327,768.978882 428.533051,767.890991 
	C428.361145,766.164368 427.827362,764.476868 427.534882,762.757812 
	C427.349548,761.668335 427.354309,760.548035 427.220856,759.447937 
	C426.939087,757.125000 426.531952,754.812988 426.357056,752.482971 
	C426.264465,751.249268 426.751678,749.966431 426.625153,748.742126 
	C426.343414,746.016052 425.766876,743.321045 425.460907,740.596558 
	C425.324493,739.381775 425.624451,738.124695 425.599182,736.889465 
	C425.512817,732.664978 427.815765,728.210327 424.261139,724.276001 
	C423.781097,723.744629 424.155060,722.381531 424.236908,721.412231 
	C424.843658,714.224487 426.500092,707.113586 423.297211,699.922791 
	C422.323151,697.735901 423.958160,694.502319 423.961456,691.747559 
	C424.015625,646.249634 423.846069,600.750793 424.091827,555.254150 
	C424.167633,541.219543 425.232056,527.184937 426.042175,513.161804 
	C426.454681,506.020294 427.385284,498.910248 427.938324,491.774872 
	C428.483826,484.736450 428.558411,477.650269 429.373138,470.647125 
	C430.204041,463.505341 431.554413,456.414185 432.909637,449.345398 
	C435.176605,437.521088 437.124420,425.603577 440.098114,413.952820 
	C448.478943,381.117188 460.710144,349.854950 480.120331,321.798248 
	C483.138947,317.434937 487.104919,313.721771 490.677551,309.748199 
	C496.669464,303.083923 502.245300,295.955994 508.838409,289.947235 
	C515.322327,284.037964 522.564270,278.823730 529.979614,274.098694 
	C552.873413,259.510925 577.810913,249.931549 604.512634,244.978027 
	C606.433655,244.621643 608.355286,244.268433 610.655212,243.689621 
z"/>
<path fill="#dedede" opacity="1.000000" stroke="none" 
	d="
M1404.000000,282.000000 
	C1316.530396,282.000000 1229.560791,282.000000 1142.510986,282.000000 
	C1142.510986,270.911316 1142.510986,260.137726 1142.510986,249.182465 
	C1287.449829,249.182465 1432.371948,249.182465 1578.231445,249.182465 
	C1573.162109,257.380402 1568.412231,265.097900 1563.626831,272.793335 
	C1548.413208,297.258820 1533.244141,321.752197 1517.947388,346.165588 
	C1505.152222,366.586487 1492.132202,386.866486 1479.339111,407.288666 
	C1464.822266,430.462189 1450.451782,453.727356 1436.008911,476.947235 
	C1414.947632,510.807556 1393.940674,544.701904 1372.792603,578.507874 
	C1356.818604,604.042664 1340.647705,629.454285 1324.590332,654.937012 
	C1320.077759,662.098389 1315.514160,669.235474 1311.293579,676.567627 
	C1310.229858,678.415466 1310.050903,680.972168 1310.049683,683.203430 
	C1309.992554,786.693481 1310.000000,890.183533 1310.000000,993.673584 
	C1310.000000,995.632812 1310.000000,997.592041 1310.000000,999.764038 
	C1298.928223,999.764038 1288.324707,999.764038 1277.000000,999.764038 
	C1277.000000,997.866455 1277.000000,995.945557 1277.000000,994.024597 
	C1277.000000,892.867676 1276.930664,791.710571 1277.148682,690.554077 
	C1277.164062,683.446411 1275.796387,677.472534 1271.947632,671.507690 
	C1257.294800,648.797852 1242.875610,625.935120 1228.564453,603.007568 
	C1207.880615,569.870422 1187.453125,536.573242 1166.753906,503.445709 
	C1149.067871,475.140350 1131.094971,447.014282 1113.354614,418.742554 
	C1091.638306,384.134552 1069.999634,349.477661 1048.390137,314.802826 
	C1034.901245,293.158325 1021.527954,271.441742 1007.633789,249.000000 
	C1017.796631,249.000000 1027.406738,249.589279 1036.906982,248.819916 
	C1045.003662,248.164185 1049.269775,250.925293 1053.305542,258.118561 
	C1062.136841,273.858826 1072.407349,288.788544 1082.007080,304.101318 
	C1097.050781,328.098022 1112.008301,352.148682 1127.034302,376.156525 
	C1148.364136,410.236420 1169.735352,444.290649 1191.066284,478.369934 
	C1212.744019,513.003235 1234.365234,547.671997 1256.069336,582.288818 
	C1267.312500,600.221008 1278.670410,618.081299 1290.016357,635.948792 
	C1290.886353,637.318726 1292.073486,638.487183 1293.351685,640.038757 
	C1367.942627,520.907532 1442.341187,402.083496 1517.528320,282.000000 
	C1479.193726,282.000000 1441.846802,282.000000 1404.000000,282.000000 
z"/>
</svg>