<svg width="678.001" height="94.401" viewBox="0 0 678.001 94.401" xmlns="http://www.w3.org/2000/svg"><g id="svgGroup" stroke-linecap="round" fill-rule="evenodd" font-size="9pt" stroke="#000" stroke-width="0.25mm" fill="#000" style="stroke:#000;stroke-width:0.25mm;fill:#000"><path d="M 53.201 5.7 L 49.701 13.6 Q 45.501 11.3 41.151 9.8 A 27.36 27.36 0 0 0 35.051 8.48 A 34.225 34.225 0 0 0 31.501 8.3 A 20.13 20.13 0 0 0 24.014 9.671 A 18.919 18.919 0 0 0 20.301 11.65 A 20.295 20.295 0 0 0 14.976 17.068 A 27.457 27.457 0 0 0 12.551 21.5 A 31.614 31.614 0 0 0 10.505 28.231 Q 9.902 31.363 9.751 34.955 A 58.311 58.311 0 0 0 9.701 37.4 Q 9.701 44.709 11.669 50.163 A 26.036 26.036 0 0 0 12.301 51.75 A 24.18 24.18 0 0 0 15.233 56.797 A 19.102 19.102 0 0 0 19.501 60.9 A 17.93 17.93 0 0 0 29.31 64.086 A 21.993 21.993 0 0 0 30.101 64.1 A 22.762 22.762 0 0 0 35.698 63.437 A 18.835 18.835 0 0 0 40.051 61.75 A 40.361 40.361 0 0 0 43.053 59.967 Q 45.338 58.463 46.901 56.9 L 46.901 41.6 L 32.401 41.6 L 32.401 34.1 L 55.901 34.1 L 55.901 71.2 L 47.501 71.2 L 47.501 64.2 A 35.883 35.883 0 0 1 43.122 67.492 A 47.354 47.354 0 0 1 39.001 69.85 A 23.594 23.594 0 0 1 29.594 72.35 A 28.131 28.131 0 0 1 27.901 72.4 A 26.572 26.572 0 0 1 18.588 70.8 A 24.511 24.511 0 0 1 13.501 68.2 Q 7.201 64 3.601 56.25 A 37.529 37.529 0 0 1 0.693 46.68 A 51.837 51.837 0 0 1 0.001 38 A 56.301 56.301 0 0 1 0.836 28.083 A 42.572 42.572 0 0 1 3.801 18.25 A 32.73 32.73 0 0 1 9.585 9.302 A 29.455 29.455 0 0 1 14.751 4.85 Q 21.901 0 32.001 0 Q 38.501 0 43.601 1.6 Q 48.701 3.2 53.201 5.7 Z M 312.401 92.4 L 314.401 84.9 A 9.908 9.908 0 0 0 315.565 85.474 Q 316.388 85.819 317.401 86.1 A 13.514 13.514 0 0 0 319.679 86.518 A 17.358 17.358 0 0 0 321.401 86.6 Q 325.601 86.6 328.901 83.9 A 12.003 12.003 0 0 0 330.834 81.839 Q 332.582 79.528 334.241 75.676 A 58.58 58.58 0 0 0 335.201 73.3 L 337.501 67.3 L 332.701 67.3 L 312.401 21.6 L 320.401 18 L 339.801 61.3 L 354.901 18.4 L 363.201 21.6 L 344.101 73.8 A 71.728 71.728 0 0 1 342.048 78.887 Q 340.945 81.326 339.778 83.314 A 30.86 30.86 0 0 1 337.801 86.3 A 24.268 24.268 0 0 1 334.923 89.511 Q 333.008 91.279 330.905 92.318 A 14.737 14.737 0 0 1 330.301 92.6 Q 326.201 94.4 321.201 94.4 Q 318.201 94.4 315.951 93.8 Q 313.701 93.2 312.401 92.4 Z M 164.101 90 L 167.401 82.2 A 20.562 20.562 0 0 0 171.217 84.573 A 24.737 24.737 0 0 0 173.001 85.35 Q 175.76 86.428 179.56 86.577 A 31.788 31.788 0 0 0 180.801 86.6 A 21.701 21.701 0 0 0 185.321 86.157 Q 188.222 85.539 190.422 84.06 A 12.576 12.576 0 0 0 191.951 82.85 A 11.352 11.352 0 0 0 194.858 78.357 Q 196.001 75.256 196.001 70.9 L 196.001 64.5 Q 194.001 66.9 190.251 69.05 Q 186.501 71.2 181.301 71.2 Q 175.401 71.2 170.101 68.15 A 22.236 22.236 0 0 1 162.808 61.313 A 27.437 27.437 0 0 1 161.501 59.2 A 25.181 25.181 0 0 1 158.788 51.576 A 35.033 35.033 0 0 1 158.201 45 A 32.06 32.06 0 0 1 159.118 37.193 A 26.682 26.682 0 0 1 161.451 31.1 A 25.706 25.706 0 0 1 167.514 23.478 A 24.448 24.448 0 0 1 170.201 21.5 Q 175.701 18 182.301 18 A 22.366 22.366 0 0 1 187.121 18.502 A 18.715 18.715 0 0 1 190.301 19.5 A 25.705 25.705 0 0 1 194.129 21.469 A 20.998 20.998 0 0 1 196.501 23.2 L 196.501 19.2 L 204.701 19.2 L 204.701 70 Q 204.701 78.6 201.701 84 Q 198.701 89.4 193.351 91.9 A 25.811 25.811 0 0 1 186.746 93.922 A 35.243 35.243 0 0 1 180.801 94.4 Q 176.201 94.4 171.851 93.3 A 27.232 27.232 0 0 1 166.55 91.383 A 23.518 23.518 0 0 1 164.101 90 Z M 637.401 90 L 640.701 82.2 A 20.562 20.562 0 0 0 644.517 84.573 A 24.737 24.737 0 0 0 646.301 85.35 Q 649.06 86.428 652.86 86.577 A 31.788 31.788 0 0 0 654.101 86.6 A 21.701 21.701 0 0 0 658.621 86.157 Q 661.522 85.539 663.722 84.06 A 12.576 12.576 0 0 0 665.251 82.85 A 11.352 11.352 0 0 0 668.158 78.357 Q 669.301 75.256 669.301 70.9 L 669.301 64.5 Q 667.301 66.9 663.551 69.05 Q 659.801 71.2 654.601 71.2 Q 648.701 71.2 643.401 68.15 A 22.236 22.236 0 0 1 636.108 61.313 A 27.437 27.437 0 0 1 634.801 59.2 A 25.181 25.181 0 0 1 632.088 51.576 A 35.033 35.033 0 0 1 631.501 45 A 32.06 32.06 0 0 1 632.418 37.193 A 26.682 26.682 0 0 1 634.751 31.1 A 25.706 25.706 0 0 1 640.814 23.478 A 24.448 24.448 0 0 1 643.501 21.5 Q 649.001 18 655.601 18 A 22.366 22.366 0 0 1 660.421 18.502 A 18.715 18.715 0 0 1 663.601 19.5 A 25.705 25.705 0 0 1 667.429 21.469 A 20.998 20.998 0 0 1 669.801 23.2 L 669.801 19.2 L 678.001 19.2 L 678.001 70 Q 678.001 78.6 675.001 84 Q 672.001 89.4 666.651 91.9 A 25.811 25.811 0 0 1 660.046 93.922 A 35.243 35.243 0 0 1 654.101 94.4 Q 649.501 94.4 645.151 93.3 A 27.232 27.232 0 0 1 639.85 91.383 A 23.518 23.518 0 0 1 637.401 90 Z M 514.901 53 L 514.901 19.2 L 523.901 19.2 L 523.901 51.8 A 22.981 22.981 0 0 0 524.154 55.334 Q 524.443 57.181 525.057 58.67 A 10.136 10.136 0 0 0 526.501 61.15 A 8.404 8.404 0 0 0 531.614 64.171 A 12.807 12.807 0 0 0 534.101 64.4 Q 538.201 64.4 542.051 62.75 Q 545.901 61.1 548.901 58.3 L 548.901 19.2 L 557.901 19.2 L 557.901 57.7 A 15.602 15.602 0 0 0 558.002 59.554 Q 558.334 62.317 559.751 63.35 Q 561.601 64.7 563.801 64.7 L 561.901 71.7 Q 552.601 71.7 550.401 64.3 Q 546.901 67.9 542.301 70.15 Q 537.701 72.4 532.401 72.4 Q 527.901 72.4 523.901 70.5 A 14.441 14.441 0 0 1 518.391 65.861 A 18.266 18.266 0 0 1 517.401 64.35 A 16.24 16.24 0 0 1 515.736 60.257 Q 514.901 57.105 514.901 53 Z M 584.801 71.2 L 575.801 71.2 L 575.801 19.2 L 584.501 19.2 L 584.501 27.9 Q 587.301 23.7 591.651 20.85 A 17.316 17.316 0 0 1 598.756 18.226 A 22.629 22.629 0 0 1 602.001 18 A 23.225 23.225 0 0 1 607.066 18.518 Q 612.16 19.656 615.151 23.3 Q 619.275 28.326 619.489 36.409 A 33.764 33.764 0 0 1 619.501 37.3 L 619.501 71.2 L 610.501 71.2 L 610.501 38.3 A 19.265 19.265 0 0 0 610.158 34.559 Q 609.72 32.345 608.719 30.597 A 10.966 10.966 0 0 0 607.851 29.3 A 8.579 8.579 0 0 0 601.574 25.947 A 12.061 12.061 0 0 0 600.501 25.9 A 13.122 13.122 0 0 0 593.651 27.864 A 17.353 17.353 0 0 0 591.801 29.15 Q 587.701 32.4 584.801 36.8 L 584.801 71.2 Z M 429.001 71.2 L 419.501 71.2 L 419.501 44.6 L 395.201 5.1 L 403.201 0.3 L 424.601 35.8 L 445.601 0.7 L 453.101 5.1 L 429.001 44.6 L 429.001 71.2 Z M 149.401 48.9 L 113.001 48.9 A 24.088 24.088 0 0 0 114.14 53.925 Q 115.476 57.738 118.101 60.3 Q 122.301 64.4 129.201 64.4 Q 133.701 64.4 137.301 63.45 Q 140.901 62.5 144.201 61 L 146.301 68.7 A 40.77 40.77 0 0 1 141.966 70.326 A 51.863 51.863 0 0 1 138.201 71.35 A 38.914 38.914 0 0 1 133.109 72.17 A 52.025 52.025 0 0 1 128.101 72.4 A 28.318 28.318 0 0 1 120.354 71.395 A 21.108 21.108 0 0 1 110.351 65.25 A 23.521 23.521 0 0 1 105.145 55.71 Q 103.801 51.046 103.801 45.2 A 35.359 35.359 0 0 1 104.633 37.378 A 28.84 28.84 0 0 1 106.751 31.25 A 24.642 24.642 0 0 1 111.767 24.168 A 22.887 22.887 0 0 1 115.001 21.55 A 21.048 21.048 0 0 1 125.26 18.078 A 26.205 26.205 0 0 1 127.301 18 Q 134.801 18 139.751 21.25 Q 144.701 24.5 147.201 30 A 28.185 28.185 0 0 1 149.627 39.864 A 33.434 33.434 0 0 1 149.701 42.1 A 75.204 75.204 0 0 1 149.41 48.797 A 69.426 69.426 0 0 1 149.401 48.9 Z M 79.401 71.2 L 70.401 71.2 L 70.401 19.2 L 79.101 19.2 L 79.101 30.5 Q 80.401 27.2 82.601 24.35 Q 84.801 21.5 88.101 19.75 A 14.817 14.817 0 0 1 92.78 18.226 A 19.459 19.459 0 0 1 95.801 18 Q 97.301 18 98.801 18.15 A 18.972 18.972 0 0 1 99.855 18.284 Q 100.355 18.362 100.782 18.463 A 8.817 8.817 0 0 1 101.301 18.6 L 98.601 27.9 A 9.763 9.763 0 0 0 96.455 27.288 Q 95.36 27.1 94.101 27.1 A 12.958 12.958 0 0 0 87.471 28.946 A 15.609 15.609 0 0 0 87.051 29.2 Q 83.723 31.286 81.579 35.642 A 22.927 22.927 0 0 0 81.551 35.7 Q 79.788 39.307 79.47 44.528 A 39.09 39.09 0 0 0 79.401 46.9 L 79.401 71.2 Z M 289.001 71.2 L 280.001 71.2 L 280.001 19.2 L 288.701 19.2 L 288.701 30.5 Q 290.001 27.2 292.201 24.35 Q 294.401 21.5 297.701 19.75 A 14.817 14.817 0 0 1 302.38 18.226 A 19.459 19.459 0 0 1 305.401 18 Q 306.901 18 308.401 18.15 A 18.972 18.972 0 0 1 309.455 18.284 Q 309.955 18.362 310.382 18.463 A 8.817 8.817 0 0 1 310.901 18.6 L 308.201 27.9 A 9.763 9.763 0 0 0 306.055 27.288 Q 304.96 27.1 303.701 27.1 A 12.958 12.958 0 0 0 297.071 28.946 A 15.609 15.609 0 0 0 296.651 29.2 Q 293.323 31.286 291.179 35.642 A 22.927 22.927 0 0 0 291.151 35.7 Q 289.388 39.307 289.07 44.528 A 39.09 39.09 0 0 0 289.001 46.9 L 289.001 71.2 Z M 228.801 68.95 A 24.559 24.559 0 0 0 233.399 71.04 Q 237.454 72.4 242.101 72.4 Q 249.501 72.4 255.351 69 Q 261.201 65.6 264.601 59.45 A 26.255 26.255 0 0 0 267.254 52.309 A 34.184 34.184 0 0 0 268.001 45 A 34.542 34.542 0 0 0 267.515 39.092 A 25.795 25.795 0 0 0 264.551 30.65 Q 261.101 24.6 255.251 21.3 A 24.848 24.848 0 0 0 250.609 19.273 A 27.738 27.738 0 0 0 242.101 18 A 31.325 31.325 0 0 0 240.52 18.04 A 26.169 26.169 0 0 0 228.901 21.3 Q 223.001 24.6 219.601 30.7 A 26.023 26.023 0 0 0 216.851 38.29 A 35.006 35.006 0 0 0 216.201 45.2 A 34.82 34.82 0 0 0 216.466 49.554 A 27.451 27.451 0 0 0 219.551 59.35 Q 222.901 65.5 228.801 68.95 Z M 464.201 68.95 A 24.559 24.559 0 0 0 468.799 71.04 Q 472.854 72.4 477.501 72.4 Q 484.901 72.4 490.751 69 Q 496.601 65.6 500.001 59.45 A 26.255 26.255 0 0 0 502.654 52.309 A 34.184 34.184 0 0 0 503.401 45 A 34.542 34.542 0 0 0 502.915 39.092 A 25.795 25.795 0 0 0 499.951 30.65 Q 496.501 24.6 490.651 21.3 A 24.848 24.848 0 0 0 486.009 19.273 A 27.738 27.738 0 0 0 477.501 18 A 31.325 31.325 0 0 0 475.92 18.04 A 26.169 26.169 0 0 0 464.301 21.3 Q 458.401 24.6 455.001 30.7 A 26.023 26.023 0 0 0 452.251 38.29 A 35.006 35.006 0 0 0 451.601 45.2 A 34.82 34.82 0 0 0 451.866 49.554 A 27.451 27.451 0 0 0 454.951 59.35 Q 458.301 65.5 464.201 68.95 Z M 242.101 64.4 Q 250.001 64.4 254.401 59.05 A 18.802 18.802 0 0 0 258.22 50.96 A 27.105 27.105 0 0 0 258.801 45.2 Q 258.801 40 256.601 35.65 A 19.198 19.198 0 0 0 252.429 30.081 A 18.17 18.17 0 0 0 250.651 28.65 Q 246.901 26 242.101 26 A 19.249 19.249 0 0 0 236.874 26.672 A 14.037 14.037 0 0 0 229.801 31.2 A 17.878 17.878 0 0 0 226.127 38.574 Q 225.401 41.506 225.401 45 Q 225.401 50.2 227.601 54.65 A 19.437 19.437 0 0 0 231.13 59.69 A 17.627 17.627 0 0 0 233.551 61.75 Q 237.301 64.4 242.101 64.4 Z M 477.501 64.4 Q 485.401 64.4 489.801 59.05 A 18.802 18.802 0 0 0 493.62 50.96 A 27.105 27.105 0 0 0 494.201 45.2 Q 494.201 40 492.001 35.65 A 19.198 19.198 0 0 0 487.829 30.081 A 18.17 18.17 0 0 0 486.051 28.65 Q 482.301 26 477.501 26 A 19.249 19.249 0 0 0 472.274 26.672 A 14.037 14.037 0 0 0 465.201 31.2 A 17.878 17.878 0 0 0 461.527 38.574 Q 460.801 41.506 460.801 45 Q 460.801 50.2 463.001 54.65 A 19.437 19.437 0 0 0 466.53 59.69 A 17.627 17.627 0 0 0 468.951 61.75 Q 472.701 64.4 477.501 64.4 Z M 195.701 57.2 L 195.701 30 Q 193.535 28.425 190.497 27.141 A 36.018 36.018 0 0 0 190.401 27.1 A 16.249 16.249 0 0 0 186.597 26.049 A 22.135 22.135 0 0 0 183.201 25.8 Q 179.101 25.8 175.501 28 Q 171.901 30.2 169.651 34.35 Q 167.401 38.5 167.401 44.5 A 24.32 24.32 0 0 0 167.879 49.436 A 18.311 18.311 0 0 0 169.651 54.4 A 18.576 18.576 0 0 0 172.562 58.475 A 15.802 15.802 0 0 0 175.501 60.9 Q 179.101 63.2 183.301 63.2 A 15.276 15.276 0 0 0 187.879 62.532 A 13.606 13.606 0 0 0 190.501 61.4 A 20.855 20.855 0 0 0 193.482 59.384 A 16.309 16.309 0 0 0 195.701 57.2 Z M 669.001 57.2 L 669.001 30 Q 666.835 28.425 663.797 27.141 A 36.018 36.018 0 0 0 663.701 27.1 A 16.249 16.249 0 0 0 659.897 26.049 A 22.135 22.135 0 0 0 656.501 25.8 Q 652.401 25.8 648.801 28 Q 645.201 30.2 642.951 34.35 Q 640.701 38.5 640.701 44.5 A 24.32 24.32 0 0 0 641.179 49.436 A 18.311 18.311 0 0 0 642.951 54.4 A 18.576 18.576 0 0 0 645.862 58.475 A 15.802 15.802 0 0 0 648.801 60.9 Q 652.401 63.2 656.601 63.2 A 15.276 15.276 0 0 0 661.179 62.532 A 13.606 13.606 0 0 0 663.801 61.4 A 20.855 20.855 0 0 0 666.782 59.384 A 16.309 16.309 0 0 0 669.001 57.2 Z M 112.901 41.6 L 141.401 41.6 A 24.355 24.355 0 0 0 140.996 37.015 Q 140.5 34.431 139.396 32.407 A 12.422 12.422 0 0 0 137.601 29.9 A 12.488 12.488 0 0 0 130.64 26.125 A 18.395 18.395 0 0 0 127.101 25.8 A 13.58 13.58 0 0 0 121.989 26.735 A 12.524 12.524 0 0 0 117.501 29.85 Q 113.701 33.9 112.901 41.6 Z" vector-effect="non-scaling-stroke"/></g></svg>