<svg id="visual" viewBox="0 0 900 130" width="900" height="130" xmlns="http://www.w3.org/2000/svg" xmlns:xlink="http://www.w3.org/1999/xlink" version="1.1"><path d="M0 69L100 61L200 15L300 45L400 51L500 48L600 27L700 70L800 43L900 36L900 131L800 131L700 131L600 131L500 131L400 131L300 131L200 131L100 131L0 131Z" fill="#0c0c0c"></path><path d="M0 81L100 54L200 85L300 64L400 57L500 44L600 71L700 71L800 75L900 89L900 131L800 131L700 131L600 131L500 131L400 131L300 131L200 131L100 131L0 131Z" fill="#0f0f0f"></path><path d="M0 98L100 87L200 75L300 90L400 102L500 80L600 105L700 107L800 104L900 68L900 131L800 131L700 131L600 131L500 131L400 131L300 131L200 131L100 131L0 131Z" fill="#111111"></path><path d="M0 90L100 97L200 115L300 112L400 127L500 115L600 107L700 104L800 115L900 100L900 131L800 131L700 131L600 131L500 131L400 131L300 131L200 131L100 131L0 131Z" fill="#141414"></path></svg>